<svg xmlns="http://www.w3.org/2000/svg" xmlns:xlink="http://www.w3.org/1999/xlink" width="1180" height="760" viewBox="0 0 1180 760">
  <defs><filter id="shadow"><feDropShadow dx="0" dy="5" stdDeviation="12" flood-opacity=".22"/></filter></defs>
  <rect width="1180" height="760" fill="#f5f7fa"/><rect width="1180" height="44" fill="#f5f7fa"/><text x="48" y="28" font-family="Segoe UI" font-size="15" font-weight="600">AtomPix</text>
  <image x="0" y="44" width="800" height="716" xlink:href="assets/wvrede-fog-10401662_1920.jpg" preserveAspectRatio="xMidYMid slice"/>
  <rect x="0" y="228" width="54" height="304" fill="#fdfdfde8" filter="url(#shadow)"/><image x="11" y="240" width="32" height="32" xlink:href="assets/atompix-brand-64.png"/>
  <g fill="#3b4654" font-family="Segoe UI Symbol" font-size="22" text-anchor="middle"><text x="27" y="314">▣</text><text x="27" y="360">⇄</text><text x="27" y="406">↔</text><text x="27" y="452">✂</text><text x="27" y="508">⚙</text></g>
  <rect x="800" y="44" width="380" height="716" fill="#fafbfc"/><path d="M800 44v716" stroke="#dfe3e8"/>
  <text x="826" y="82" font-family="Segoe UI" font-size="22" font-weight="700">压缩图片</text><text x="1144" y="82" font-size="22">×</text><path d="M800 102h380" stroke="#e4e7eb"/>
  <g font-family="Segoe UI" fill="#1d2733"><text x="826" y="146" font-size="17" font-weight="700">压缩模式</text><rect x="826" y="164" width="328" height="42" rx="8" fill="#eef0f2"/><text x="852" y="191">智能</text><text x="920" y="191">高质量</text><text x="997" y="191">平衡</text><text x="1060" y="191">自定义</text><text x="826" y="254" font-size="17" font-weight="700">输出位置</text><rect x="826" y="272" width="328" height="42" rx="8" fill="#eef0f2"/><text x="846" y="299">原图旁子目录</text><text x="966" y="299">原图目录</text><text x="1070" y="299">自定义</text></g>
  <rect x="826" y="680" width="158" height="48" rx="8" fill="#1677ff"/><rect x="996" y="680" width="158" height="48" rx="8" fill="#1677ff"/><text x="905" y="711" text-anchor="middle" fill="#fff" font-family="Segoe UI" font-size="16">单张处理</text><text x="1075" y="711" text-anchor="middle" fill="#fff" font-family="Segoe UI" font-size="16">批量处理</text>
  <g filter="url(#shadow)"><rect x="750" y="66" width="392" height="146" rx="10" fill="#fff"/><rect x="750" y="66" width="5" height="146" rx="3" fill="#52c41a"/></g>
  <text x="780" y="102" font-family="Segoe UI" font-size="18" font-weight="700">批量压缩：批量任务完成</text><text x="1114" y="101" font-size="18">×</text><text x="780" y="133" font-family="Segoe UI" font-size="14" fill="#4a5563">成功 20 · 失败 0 · 跳过 0 · 取消 0</text><text x="780" y="159" font-family="Segoe UI" font-size="14" fill="#4a5563">总体积减少 36.8 MB（42.1%）</text><text x="780" y="190" font-family="Segoe UI" font-size="13" fill="#1677ff">点击查看处理详情</text>
</svg>
