<svg xmlns="http://www.w3.org/2000/svg" width="1440" height="900" viewBox="0 0 1440 900">
  <defs><style>text{font-family:"Segoe UI","Microsoft YaHei",sans-serif;fill:#263142}.muted{fill:#718096}.tiny{font-size:12px}.small{font-size:14px}.body{font-size:16px}.title{font-size:20px;font-weight:650}.heading{font-size:16px;font-weight:650}.btn{font-size:14px;font-weight:600}</style><filter id="s" x="-20%" y="-20%" width="140%" height="140%"><feDropShadow dx="0" dy="8" stdDeviation="18" flood-color="#233044" flood-opacity=".12"/></filter><pattern id="checker" width="18" height="18" patternUnits="userSpaceOnUse"><rect width="18" height="18" fill="#eef2f6"/><rect width="9" height="9" fill="#dfe5ec"/><rect x="9" y="9" width="9" height="9" fill="#dfe5ec"/></pattern></defs>
  <rect width="1440" height="900" fill="#e8edf3"/><rect x="40" y="30" width="1360" height="840" rx="18" fill="#fff" filter="url(#s)"/><path d="M58 30h1324a18 18 0 0 1 18 18v48H40V48a18 18 0 0 1 18-18z" fill="#f8fafc"/><line x1="40" y1="96" x2="1400" y2="96" stroke="#dce3eb"/>
  <rect x="62" y="50" width="28" height="28" rx="8" fill="#4f6bed"/><circle cx="76" cy="64" r="7" fill="none" stroke="#fff" stroke-width="3"/><circle cx="76" cy="64" r="2" fill="#fff"/><text x="102" y="69" class="heading">AtomPix</text><text x="270" y="69" class="small muted">格式转换</text>
  <rect x="40" y="96" width="190" height="774" fill="#f8fafc"/><line x1="230" y1="96" x2="230" y2="870" stroke="#dce3eb"/><text x="62" y="131" class="tiny muted">工作区</text>
  <text x="98" y="173" class="small">浏览</text><rect x="67" y="158" width="18" height="16" rx="3" fill="none" stroke="#78869a" stroke-width="2"/><text x="98" y="217" class="small">压缩</text><circle cx="76" cy="212" r="9" fill="none" stroke="#78869a" stroke-width="2"/>
  <rect x="52" y="234" width="166" height="44" rx="9" fill="#e9efff"/><path d="M68 253h16M78 248l6 5-6 5M74 265H58M64 260l-6 5 6 5" transform="translate(8 -6)" fill="none" stroke="#4f6bed" stroke-width="2"/><text x="98" y="261" class="small" fill="#3551be" font-weight="650">转换</text>
  <path d="M68 294h16M68 302h16M71 290v16M81 290v16" fill="none" stroke="#78869a" stroke-width="1.6"/><text x="98" y="305" class="small">调整尺寸</text><path d="M68 330h16v16H68zM64 334h8M80 342h8" fill="none" stroke="#78869a" stroke-width="1.7"/><text x="98" y="349" class="small">裁剪</text><rect x="67" y="374" width="18" height="16" rx="3" fill="none" stroke="#78869a" stroke-width="2"/><text x="98" y="393" class="small">批量任务</text><line x1="61" y1="422" x2="209" y2="422" stroke="#e1e7ee"/><text x="98" y="466" class="small">设置</text>
  <text x="266" y="136" class="title">转换图片格式</text><text x="266" y="161" class="small muted">选择目标格式、质量与拍摄信息策略；像素尺寸保持不变。</text>
  <rect x="1080" y="118" width="282" height="44" rx="9" fill="#fff" stroke="#dce3eb"/><text x="1097" y="145" class="small">portrait.png</text><text x="1344" y="145" text-anchor="end" class="tiny" fill="#4f6bed">更换图片</text>

  <!-- left content -->
  <rect x="266" y="184" width="786" height="628" rx="14" fill="#f8fafc" stroke="#dce3eb"/>
  <rect x="286" y="204" width="746" height="380" rx="10" fill="url(#checker)"/>
  <circle cx="646" cy="369" r="105" fill="#9fb9b0" opacity=".9"/><circle cx="685" cy="335" r="34" fill="#f0d8b9"/><path d="M552 496c20-92 83-135 143-113 49 18 84 62 91 113z" fill="#6d8e86"/><path d="M587 390c20-49 99-65 127-7-37 27-75 39-127 7z" fill="#3f5360"/>
  <rect x="302" y="220" width="94" height="30" rx="15" fill="#fff" opacity=".92"/><text x="349" y="240" text-anchor="middle" class="tiny">PNG · 12.1 MB</text>
  <rect x="910" y="220" width="104" height="30" rx="15" fill="#fff" opacity=".92"/><text x="962" y="240" text-anchor="middle" class="tiny">2400 × 3200</text>
  <text x="286" y="619" class="heading">转换摘要</text>
  <rect x="286" y="637" width="228" height="112" rx="10" fill="#fff" stroke="#dce3eb"/><text x="304" y="663" class="tiny muted">输入</text><text x="304" y="690" class="body" font-weight="650">PNG</text><text x="304" y="715" class="small muted">透明通道 · 12.1 MB</text>
  <path d="M535 692h54M577 682l12 10-12 10" fill="none" stroke="#4f6bed" stroke-width="3" stroke-linecap="round"/>
  <rect x="610" y="637" width="242" height="112" rx="10" fill="#eef2ff" stroke="#9eadeb"/><text x="628" y="663" class="tiny" fill="#4f6bed">输出</text><text x="628" y="690" class="body" font-weight="650">JPEG</text><text x="628" y="715" class="small muted">白色铺底 · 尺寸不变</text>
  <rect x="872" y="637" width="160" height="112" rx="10" fill="#fff" stroke="#dce3eb"/><text x="890" y="663" class="tiny muted">文件体积</text><text x="890" y="690" class="small" font-weight="650">处理后显示</text><text x="890" y="715" class="small muted">以实际结果为准</text>
  <rect x="286" y="765" width="746" height="28" rx="6" fill="#fff7ed"/><circle cx="302" cy="779" r="6" fill="#d69e2e"/><text x="316" y="783" class="tiny" fill="#9a5a13">JPEG 不支持透明通道；透明区域将使用白色（#FFFFFF）填充。</text>

  <!-- settings -->
  <rect x="1076" y="184" width="286" height="628" rx="14" fill="#fff" stroke="#dce3eb"/><text x="1096" y="216" class="heading">转换设置</text><text x="1096" y="248" class="tiny muted">输出格式</text>
  <rect x="1096" y="261" width="74" height="62" rx="9" fill="#eef2ff" stroke="#4f6bed" stroke-width="2"/><text x="1133" y="287" text-anchor="middle" class="small" fill="#3551be" font-weight="650">JPEG</text><text x="1133" y="307" text-anchor="middle" class="tiny" fill="#4f6bed">有损</text>
  <rect x="1182" y="261" width="74" height="62" rx="9" fill="#fff" stroke="#cbd5e1"/><text x="1219" y="287" text-anchor="middle" class="small" font-weight="650">PNG</text><text x="1219" y="307" text-anchor="middle" class="tiny muted">无损</text>
  <rect x="1268" y="261" width="74" height="62" rx="9" fill="#fff" stroke="#cbd5e1"/><text x="1305" y="287" text-anchor="middle" class="small" font-weight="650">WebP</text><text x="1305" y="307" text-anchor="middle" class="tiny muted">推荐</text>
  <text x="1096" y="356" class="tiny muted">输出质量</text><text x="1342" y="356" text-anchor="end" class="small" font-weight="650">80</text><line x1="1096" y1="377" x2="1342" y2="377" stroke="#cad4df" stroke-width="5" stroke-linecap="round"/><line x1="1096" y1="377" x2="1282" y2="377" stroke="#4f6bed" stroke-width="5" stroke-linecap="round"/><circle cx="1282" cy="377" r="8" fill="#fff" stroke="#4f6bed" stroke-width="3"/>
  <line x1="1096" y1="400" x2="1342" y2="400" stroke="#e1e7ee"/><text x="1096" y="423" class="tiny muted">透明区域背景色</text>
  <rect x="1096" y="434" width="34" height="34" rx="7" fill="#fff" stroke="#9aa8b8"/><rect x="1140" y="432" width="118" height="38" rx="8" fill="#fff" stroke="#4f6bed"/><text x="1154" y="456" class="small" font-weight="650">#FFFFFF</text><rect x="1268" y="434" width="34" height="34" rx="7" fill="#fff" stroke="#9aa8b8"/><text x="1285" y="456" text-anchor="middle" class="tiny">白</text><rect x="1308" y="434" width="34" height="34" rx="7" fill="#263142"/><text x="1325" y="456" text-anchor="middle" class="tiny" fill="#fff">黑</text>
  <text x="1096" y="490" class="tiny" fill="#9a5a13">仅在真实透明图片输出 JPEG 时应用</text>
  <line x1="1096" y1="506" x2="1342" y2="506" stroke="#e1e7ee"/><text x="1096" y="530" class="tiny muted">拍摄与位置数据</text><rect x="1096" y="541" width="16" height="16" rx="3" fill="#fff" stroke="#a8b4c1"/><text x="1122" y="554" class="small">移除拍摄信息与位置数据</text><text x="1096" y="580" class="tiny muted">ICC 色彩配置保留 · width / height 不变</text>
  <line x1="1096" y1="593" x2="1342" y2="593" stroke="#e1e7ee"/><text x="1096" y="616" class="tiny muted">输出位置</text><rect x="1096" y="626" width="246" height="38" rx="8" fill="#fff" stroke="#cbd5e1"/><text x="1112" y="650" class="small">AtomPix_Output 子目录</text>
  <text x="1096" y="686" class="tiny muted">文件名</text><rect x="1096" y="696" width="246" height="38" rx="8" fill="#fff" stroke="#cbd5e1"/><text x="1112" y="720" class="small">portrait.jpg</text>
  <text x="1096" y="756" class="tiny muted">同名文件</text><rect x="1096" y="766" width="246" height="36" rx="8" fill="#fff" stroke="#cbd5e1"/><text x="1112" y="789" class="small">自动重命名</text>
  <rect x="1076" y="824" width="286" height="46" fill="#f8fafc"/><rect x="1096" y="832" width="246" height="38" rx="8" fill="#4f6bed"/><text x="1219" y="856" text-anchor="middle" class="btn" fill="#fff">开始转换</text>
  <text x="266" y="844" class="tiny muted">原型 04 · 单张转换 / 透明 PNG → JPEG 确定性铺底</text>
</svg>
