<svg xmlns="http://www.w3.org/2000/svg" width="1440" height="900" viewBox="0 0 1440 900">
  <defs><style>text{font-family:"Segoe UI","Microsoft YaHei",sans-serif;fill:#263142}.muted{fill:#718096}.tiny{font-size:12px}.small{font-size:14px}.body{font-size:16px}.title{font-size:20px;font-weight:650}.heading{font-size:16px;font-weight:650}.btn{font-size:14px;font-weight:600}</style><filter id="s" x="-20%" y="-20%" width="140%" height="140%"><feDropShadow dx="0" dy="8" stdDeviation="18" flood-color="#233044" flood-opacity=".12"/></filter></defs>
  <rect width="1440" height="900" fill="#e8edf3"/><rect x="40" y="30" width="1360" height="840" rx="18" fill="#fff" filter="url(#s)"/><path d="M58 30h1324a18 18 0 0 1 18 18v48H40V48a18 18 0 0 1 18-18z" fill="#f8fafc"/><line x1="40" y1="96" x2="1400" y2="96" stroke="#dce3eb"/>
  <rect x="62" y="50" width="28" height="28" rx="8" fill="#4f6bed"/><circle cx="76" cy="64" r="7" fill="none" stroke="#fff" stroke-width="3"/><circle cx="76" cy="64" r="2" fill="#fff"/><text x="102" y="69" class="heading">AtomPix</text><text x="270" y="69" class="small muted">设置</text><circle cx="1222" cy="65" r="5" fill="#d69e2e"/><text x="1348" y="69" text-anchor="end" class="tiny muted">有未保存的修改</text>
  <!-- main nav -->
  <rect x="40" y="96" width="190" height="774" fill="#f8fafc"/><line x1="230" y1="96" x2="230" y2="870" stroke="#dce3eb"/><text x="62" y="131" class="tiny muted">工作区</text><text x="98" y="173" class="small">浏览</text><text x="98" y="217" class="small">压缩</text><text x="98" y="261" class="small">转换</text><text x="98" y="305" class="small">调整尺寸</text><text x="98" y="349" class="small">裁剪</text><text x="98" y="393" class="small">批量任务</text><line x1="61" y1="422" x2="209" y2="422" stroke="#e1e7ee"/>
  <rect x="52" y="437" width="166" height="44" rx="9" fill="#e9efff"/><circle cx="76" cy="459" r="9" fill="none" stroke="#4f6bed" stroke-width="2"/><path d="M76 446v5M76 467v5M63 459h5M84 459h5" stroke="#4f6bed"/><text x="98" y="464" class="small" fill="#3551be" font-weight="650">设置</text>
  <rect x="56" y="760" width="158" height="84" rx="10" fill="#fff" stroke="#dde4ec"/><text x="70" y="785" class="small" font-weight="650">AtomPix 1.0</text><text x="70" y="807" class="tiny muted">本地图片工具</text><text x="70" y="828" class="tiny" fill="#4f6bed">查看隐私说明</text>
  <!-- settings subnav -->
  <rect x="230" y="96" width="222" height="774" fill="#fbfcfe"/><line x1="452" y1="96" x2="452" y2="870" stroke="#dce3eb"/><text x="258" y="138" class="title">设置</text>
  <rect x="246" y="164" width="190" height="40" rx="8" fill="#e9efff"/><text x="264" y="189" class="small" fill="#3551be" font-weight="650">处理默认值</text><text x="264" y="235" class="small">外观与语言</text><text x="424" y="235" text-anchor="end" class="tiny muted">系统 · 中文</text><text x="264" y="279" class="small">最近记录</text><text x="424" y="279" text-anchor="end" class="tiny muted">保留 20 项</text><text x="264" y="323" class="small">关于 AtomPix</text>
  <!-- content -->
  <text x="492" y="138" class="title">处理默认值</text><text x="492" y="164" class="small muted">当前画面为已编辑的 Custom 76 示例；恢复默认后压缩模式为 Smart。</text>
  <rect x="492" y="190" width="860" height="216" rx="12" fill="#fff" stroke="#dce3eb"/><text x="514" y="221" class="heading">默认压缩</text><text x="514" y="252" class="small muted">压缩模式</text><rect x="748" y="232" width="268" height="38" rx="8" fill="#fff" stroke="#cbd5e1"/><text x="764" y="256" class="small">自定义</text><text x="998" y="256" text-anchor="end" class="small muted">⌄</text>
  <text x="514" y="300" class="small muted">自定义质量 · 1–100</text><line x1="748" y1="296" x2="950" y2="296" stroke="#cbd5e1" stroke-width="5" stroke-linecap="round"/><line x1="748" y1="296" x2="902" y2="296" stroke="#4f6bed" stroke-width="5" stroke-linecap="round"/><circle cx="902" cy="296" r="8" fill="#fff" stroke="#4f6bed" stroke-width="3"/><rect x="966" y="278" width="50" height="36" rx="7" fill="#fff" stroke="#4f6bed"/><text x="991" y="301" text-anchor="middle" class="small" font-weight="650">76</text>
  <text x="514" y="348" class="small muted">公共默认：移除拍摄信息与位置数据</text><rect x="966" y="334" width="50" height="26" rx="13" fill="#4f6bed"/><circle cx="1003" cy="347" r="10" fill="#fff"/>
  <text x="514" y="390" class="tiny muted">Custom 与质量共同保存；Smart 内部参数不可配置；ICC 色彩配置保留。</text>
  <rect x="492" y="424" width="860" height="194" rx="12" fill="#fff" stroke="#dce3eb"/><text x="514" y="455" class="heading">默认转换</text><text x="514" y="486" class="small muted">输出格式</text><rect x="748" y="466" width="268" height="38" rx="8" fill="#fff" stroke="#cbd5e1"/><text x="764" y="490" class="small">WebP</text><text x="998" y="490" text-anchor="end" class="small muted">⌄</text>
  <text x="514" y="530" class="small muted">输出质量</text><line x1="748" y1="527" x2="980" y2="527" stroke="#cbd5e1" stroke-width="5" stroke-linecap="round"/><line x1="748" y1="527" x2="928" y2="527" stroke="#4f6bed" stroke-width="5" stroke-linecap="round"/><circle cx="928" cy="527" r="8" fill="#fff" stroke="#4f6bed" stroke-width="3"/><text x="1016" y="532" class="small" font-weight="650">80</text>
  <text x="514" y="570" class="small muted">透明区域背景色</text><rect x="748" y="550" width="38" height="38" rx="8" fill="#fff" stroke="#9aa8b8"/><rect x="798" y="550" width="150" height="38" rx="8" fill="#fff" stroke="#4f6bed"/><text x="814" y="574" class="small" font-weight="650">#FFFFFF</text><rect x="960" y="552" width="52" height="34" rx="8" fill="#fff" stroke="#9aa8b8"/><text x="986" y="574" text-anchor="middle" class="tiny">白色</text><rect x="1024" y="552" width="52" height="34" rx="8" fill="#263142"/><text x="1050" y="574" text-anchor="middle" class="tiny" fill="#fff">黑色</text><text x="1090" y="574" class="tiny muted">JPEG 透明项</text>
  <text x="748" y="608" class="tiny muted">PNG / WebP 保留透明度。</text>
  <rect x="492" y="634" width="860" height="164" rx="12" fill="#fff" stroke="#dce3eb"/><text x="514" y="665" class="heading">同格式编码与默认输出</text><text x="748" y="665" class="tiny muted">Resize/Crop：有损质量 90 · 元数据跟随公共开关 · ICC 保留</text><text x="514" y="696" class="small muted">输出位置</text><rect x="748" y="676" width="388" height="38" rx="8" fill="#fff" stroke="#cbd5e1"/><text x="764" y="700" class="small">原图旁的 AtomPix_Output 子目录</text><text x="1118" y="700" text-anchor="end" class="small muted">⌄</text>
  <text x="514" y="740" class="small muted">文件名格式</text><rect x="748" y="720" width="388" height="38" rx="8" fill="#fff" stroke="#cbd5e1"/><text x="764" y="744" class="small">{name}_atompix</text><text x="1118" y="744" text-anchor="end" class="small muted">批量自动加 {index}</text>
  <text x="514" y="784" class="small muted">同名文件</text><rect x="748" y="764" width="388" height="34" rx="8" fill="#fff" stroke="#cbd5e1"/><text x="764" y="786" class="small">自动重命名（推荐）</text><text x="1118" y="786" text-anchor="end" class="small muted">⌄</text>
  <rect x="492" y="806" width="130" height="38" rx="8" fill="#4f6bed"/><text x="557" y="830" text-anchor="middle" class="btn" fill="#fff">保存设置</text><rect x="634" y="806" width="130" height="38" rx="8" fill="#fff" stroke="#cbd5e1"/><text x="699" y="830" text-anchor="middle" class="small">恢复默认</text><text x="1352" y="830" text-anchor="end" class="tiny muted">Schema v1 · 最近保存于 10:36</text>
  <text x="492" y="861" class="tiny muted">原型 06 · 设置 / 处理默认值</text>
</svg>
