<svg xmlns="http://www.w3.org/2000/svg" width="1440" height="900" viewBox="0 0 1440 900">
  <defs>
    <style>text{font-family:"Segoe UI","Microsoft YaHei",sans-serif;fill:#263142}.muted{fill:#718096}.tiny{font-size:12px}.small{font-size:14px}.body{font-size:16px}.title{font-size:20px;font-weight:650}.heading{font-size:16px;font-weight:650}.btn{font-size:14px;font-weight:600}</style>
    <filter id="s" x="-20%" y="-20%" width="140%" height="140%"><feDropShadow dx="0" dy="8" stdDeviation="18" flood-color="#233044" flood-opacity=".12"/></filter>
    <linearGradient id="sky" x1="0" y1="0" x2="0" y2="1"><stop offset="0" stop-color="#9ec8dc"/><stop offset="1" stop-color="#dce8eb"/></linearGradient>
  </defs>
  <rect width="1440" height="900" fill="#e8edf3"/><rect x="40" y="30" width="1360" height="840" rx="18" fill="#fff" filter="url(#s)"/>
  <path d="M58 30h1324a18 18 0 0 1 18 18v48H40V48a18 18 0 0 1 18-18z" fill="#f8fafc"/><line x1="40" y1="96" x2="1400" y2="96" stroke="#dce3eb"/>
  <rect x="62" y="50" width="28" height="28" rx="8" fill="#4f6bed"/><circle cx="76" cy="64" r="7" fill="none" stroke="#fff" stroke-width="3"/><circle cx="76" cy="64" r="2" fill="#fff"/><text x="102" y="69" class="heading">AtomPix</text><text x="270" y="69" class="small muted">裁剪图片</text>
  <rect x="1192" y="47" width="156" height="34" rx="17" fill="#eef2ff"/><text x="1270" y="69" text-anchor="middle" class="tiny" fill="#4f6bed">单张任务 · 当前草稿</text>

  <!-- equal-weight primary navigation -->
  <rect x="40" y="96" width="190" height="774" fill="#f8fafc"/><line x1="230" y1="96" x2="230" y2="870" stroke="#dce3eb"/><text x="62" y="131" class="tiny muted">工作区</text>
  <text x="98" y="173" class="small">浏览</text><text x="98" y="217" class="small">压缩</text><text x="98" y="261" class="small">转换</text><text x="98" y="305" class="small">调整尺寸</text>
  <rect x="52" y="322" width="166" height="44" rx="9" fill="#e9efff"/><path d="M68 334h16v16H68zM64 338h8M80 346h8" fill="none" stroke="#4f6bed" stroke-width="1.8"/><text x="98" y="349" class="small" fill="#3551be" font-weight="650">裁剪</text>
  <rect x="67" y="379" width="18" height="16" rx="3" fill="none" stroke="#78869a" stroke-width="2"/><path d="M71 384h10M71 390h7" stroke="#78869a"/><text x="98" y="393" class="small">批量任务</text><line x1="61" y1="422" x2="209" y2="422" stroke="#e1e7ee"/><text x="98" y="466" class="small">设置</text>
  <rect x="56" y="760" width="158" height="84" rx="10" fill="#fff" stroke="#dde4ec"/><text x="70" y="785" class="tiny muted">当前图片</text><text x="70" y="807" class="small" font-weight="650">seaside.jpg</text><text x="70" y="828" class="tiny muted">4000 × 3000 · JPEG</text>

  <!-- workspace header -->
  <text x="266" y="136" class="title">裁剪图片</text><text x="266" y="161" class="small muted">拖动或缩放选框，也可以输入精确像素尺寸与位置。</text>
  <rect x="1080" y="118" width="282" height="44" rx="9" fill="#fff" stroke="#dce3eb"/><text x="1097" y="145" class="small">seaside.jpg</text><text x="1344" y="145" text-anchor="end" class="tiny" fill="#4f6bed">更换图片</text>

  <!-- crop canvas -->
  <rect x="266" y="184" width="786" height="628" rx="14" fill="#202733" stroke="#dce3eb"/>
  <rect x="298" y="218" width="722" height="484" rx="4" fill="url(#sky)"/>
  <circle cx="866" cy="308" r="46" fill="#f8e6ae" opacity=".9"/>
  <path d="M298 508c112-91 210-53 290-143 88 91 189 45 432 139v198H298z" fill="#789ba5"/>
  <path d="M298 572c156-48 275 22 384 27 116 6 217-34 338-48v151H298z" fill="#547f8c"/>
  <path d="M298 642c180-42 389 68 722 0v60H298z" fill="#d9c7a4"/>

  <!-- dimmed area outside crop rectangle -->
  <rect x="298" y="218" width="722" height="58" fill="#101622" opacity=".62"/>
  <rect x="298" y="636" width="722" height="66" fill="#101622" opacity=".62"/>
  <rect x="298" y="276" width="182" height="360" fill="#101622" opacity=".62"/>
  <rect x="840" y="276" width="180" height="360" fill="#101622" opacity=".62"/>

  <!-- crop selection and rule-of-thirds grid -->
  <rect x="480" y="276" width="360" height="360" fill="none" stroke="#fff" stroke-width="2"/>
  <line x1="600" y1="276" x2="600" y2="636" stroke="#fff" opacity=".65"/><line x1="720" y1="276" x2="720" y2="636" stroke="#fff" opacity=".65"/>
  <line x1="480" y1="396" x2="840" y2="396" stroke="#fff" opacity=".65"/><line x1="480" y1="516" x2="840" y2="516" stroke="#fff" opacity=".65"/>
  <g fill="#fff" stroke="#4f6bed" stroke-width="2"><rect x="474" y="270" width="12" height="12" rx="2"/><rect x="654" y="270" width="12" height="12" rx="2"/><rect x="834" y="270" width="12" height="12" rx="2"/><rect x="474" y="450" width="12" height="12" rx="2"/><rect x="834" y="450" width="12" height="12" rx="2"/><rect x="474" y="630" width="12" height="12" rx="2"/><rect x="654" y="630" width="12" height="12" rx="2"/><rect x="834" y="630" width="12" height="12" rx="2"/></g>
  <rect x="494" y="292" width="126" height="28" rx="14" fill="#172033" opacity=".82"/><text x="557" y="311" text-anchor="middle" class="tiny" fill="#fff">1800 × 1800 · 1:1</text>
  <rect x="286" y="724" width="746" height="68" rx="10" fill="#f8fafc"/>
  <text x="304" y="750" class="small" font-weight="650">选区与输入实时同步</text><text x="304" y="773" class="tiny muted">拖动选框改变 X / Y；拖动 8 个控制点改变 Width / Height。</text>
  <rect x="826" y="739" width="188" height="38" rx="8" fill="#fff" stroke="#aeb9c7"/><text x="920" y="763" text-anchor="middle" class="small">重置为整张图片</text>

  <!-- crop inspector -->
  <rect x="1076" y="184" width="286" height="628" rx="14" fill="#fff" stroke="#dce3eb"/><text x="1096" y="216" class="heading">裁剪设置</text>
  <text x="1096" y="248" class="tiny muted">裁剪比例</text><rect x="1096" y="260" width="246" height="38" rx="8" fill="#eef2ff" stroke="#4f6bed"/><text x="1219" y="284" text-anchor="middle" class="small" fill="#3551be" font-weight="650">自由比例</text>
  <g class="tiny"><rect x="1096" y="310" width="55" height="34" rx="7" fill="#fff" stroke="#cbd5e1"/><text x="1124" y="332" text-anchor="middle">3:2</text><rect x="1159" y="310" width="55" height="34" rx="7" fill="#fff" stroke="#cbd5e1"/><text x="1187" y="332" text-anchor="middle">4:3</text><rect x="1222" y="310" width="55" height="34" rx="7" fill="#fff" stroke="#cbd5e1"/><text x="1250" y="332" text-anchor="middle">5:4</text><rect x="1285" y="310" width="57" height="34" rx="7" fill="#fff" stroke="#cbd5e1"/><text x="1314" y="332" text-anchor="middle">1:1</text>
  <rect x="1096" y="352" width="55" height="34" rx="7" fill="#fff" stroke="#cbd5e1"/><text x="1124" y="374" text-anchor="middle">4:5</text><rect x="1159" y="352" width="55" height="34" rx="7" fill="#fff" stroke="#cbd5e1"/><text x="1187" y="374" text-anchor="middle">3:4</text><rect x="1222" y="352" width="55" height="34" rx="7" fill="#fff" stroke="#cbd5e1"/><text x="1250" y="374" text-anchor="middle">2:3</text></g>
  <line x1="1096" y1="406" x2="1342" y2="406" stroke="#e1e7ee"/>
  <text x="1096" y="432" class="tiny muted">选区尺寸（px）</text><text x="1096" y="454" class="tiny muted">Width</text><text x="1224" y="454" class="tiny muted">Height</text>
  <rect x="1096" y="462" width="118" height="40" rx="8" fill="#fff" stroke="#4f6bed"/><text x="1110" y="487" class="small" font-weight="650">1800</text><rect x="1224" y="462" width="118" height="40" rx="8" fill="#fff" stroke="#cbd5e1"/><text x="1238" y="487" class="small" font-weight="650">1800</text>
  <text x="1096" y="526" class="tiny muted">选区位置（px）</text><text x="1096" y="548" class="tiny muted">Position X</text><text x="1224" y="548" class="tiny muted">Position Y</text>
  <rect x="1096" y="556" width="118" height="40" rx="8" fill="#fff" stroke="#cbd5e1"/><text x="1110" y="581" class="small">920</text><rect x="1224" y="556" width="118" height="40" rx="8" fill="#fff" stroke="#cbd5e1"/><text x="1238" y="581" class="small">310</text>
  <rect x="1096" y="616" width="246" height="70" rx="9" fill="#eef6f1"/><text x="1112" y="640" class="tiny muted">预计输出</text><text x="1112" y="665" class="heading" fill="#2f855a">1800 × 1800 px</text><text x="1326" y="665" text-anchor="end" class="tiny muted">保留 JPEG</text>
  <rect x="1096" y="700" width="246" height="48" rx="8" fill="#fff7ed"/><text x="1112" y="721" class="tiny" fill="#9a5a13">选区必须完全位于原图内</text><text x="1112" y="739" class="tiny muted">Width / Height 必须大于 0</text>
  <text x="1096" y="778" class="tiny muted">输出：AtomPix_Output · 自动重命名</text>
  <rect x="1076" y="824" width="286" height="46" fill="#f8fafc"/><rect x="1096" y="832" width="156" height="38" rx="8" fill="#4f6bed"/><text x="1174" y="856" text-anchor="middle" class="btn" fill="#fff">开始裁剪</text><rect x="1260" y="832" width="82" height="38" rx="8" fill="#fff" stroke="#b8c4d0"/><text x="1301" y="856" text-anchor="middle" class="tiny">继续调尺寸</text>
  <text x="266" y="844" class="tiny muted">原型 10 · 单张裁剪 / 选框、精确像素与比例预设</text>
</svg>
